# xmcd
#
# Track frame offsets:
#	150
#	16330
#	32567
#	47397
#	58982
#	72277
#	86117
#	104795
#	116447
#	133392
#	145335
#	163192
#	180847
#	196262
#	210630
#
# Disc length: 2993 seconds
#
# Revision: 1
# Processed by: cddbd v1.4PL0 Copyright (c) Steve Scherf et al.
# Submitted via: audiograbber 1.81.03
#
DISCID=da0baf0f
DTITLE=Miss Sophie - A Winters` Night
DYEAR=1993
DGENRE=Country
TTITLE0=Heartaches
TTITLE1=Lovin` Only Me
TTITLE2=I Knew Enough To Fall In Love With You
TTITLE3=Cry, Cry, Cry
TTITLE4=A Song From A Bird
TTITLE5=Louisville
TTITLE6=The Helpful Angel
TTITLE7=Loose Talk
TTITLE8=Billy Cant Read
TTITLE9=I`ll Love Away Your Trobles For A While
TTITLE10=Joanna
TTITLE11=Cheatin` Call
TTITLE12=The Only Thing Bluer Than This Eays
TTITLE13=Just Lovin` You 
TTITLE14=A Winter`s  Night
EXTD=
EXTT0=
EXTT1=
EXTT2=
EXTT3=
EXTT4=
EXTT5=
EXTT6=
EXTT7=
EXTT8=
EXTT9=
EXTT10=
EXTT11=
EXTT12=
EXTT13=
EXTT14=
PLAYORDER=
